HIERARCHY
ROOT hip
{
  OFFSET 0 0 0
  CHANNELS 6 Xposition Yposition Zposition Zrotation Yrotation Xrotation
  JOINT abdomen
  {
    OFFSET 0 20.6881 -0.73152
    CHANNELS 3 Zrotation Xrotation Yrotation
    JOINT chest
    {
      OFFSET 0 11.7043 -0.48768
      CHANNELS 3 Zrotation Xrotation Yrotation
      JOINT neck
      {
        OFFSET 0 22.1894 -2.19456
        CHANNELS 3 Zrotation Xrotation Yrotation
        JOINT head
        {
          OFFSET -0.24384 7.07133 1.2192
          CHANNELS 3 Zrotation Xrotation Yrotation
          JOINT leftEye
          {
            OFFSET 4.14528 8.04674 8.04672
            CHANNELS 3 Zrotation Xrotation Yrotation
            End Site
            {
              OFFSET 1 0 0
            }
          }
          JOINT rightEye
          {
            OFFSET -3.6576 8.04674 8.04672
            CHANNELS 3 Zrotation Xrotation Yrotation
            End Site
            {
              OFFSET 1 0 0
            }
          }
        }
      }
      JOINT rCollar
      {
        OFFSET -2.68224 19.2634 -4.8768
        CHANNELS 3 Zrotation Xrotation Yrotation
        JOINT rShldr
        {
          OFFSET -8.77824 -1.95073 1.46304
          CHANNELS 3 Zrotation Xrotation Yrotation
          JOINT rForeArm
          {
            OFFSET -28.1742 -1.7115 0.48768
            CHANNELS 3 Zrotation Xrotation Yrotation
            JOINT rHand
            {
              OFFSET -22.5879 0.773209 7.07136
              CHANNELS 3 Zrotation Xrotation Yrotation
              JOINT rThumb1
              {
                OFFSET -1.2192 -0.487915 3.41376
                CHANNELS 3 Zrotation Xrotation Yrotation
                JOINT rThumb2
                {
                  OFFSET -3.37035 -0.52449 3.41376
                  CHANNELS 3 Zrotation Xrotation Yrotation
                  End Site
                  {
                    OFFSET -1.78271 -1.18214 1.43049
                  }
                }
              }
              JOINT rIndex1
              {
                OFFSET -7.75947 0.938293 5.60832
                CHANNELS 3 Zrotation Xrotation Yrotation
                JOINT rIndex2
                {
                  OFFSET -2.54057 -0.884171 1.56538
                  CHANNELS 3 Zrotation Xrotation Yrotation
                  End Site
                  {
                    OFFSET -1.62519 -0.234802 1.16502
                  }
                }
              }
              JOINT rMid1
              {
                OFFSET -8.24714 1.18213 3.41376
                CHANNELS 3 Zrotation Xrotation Yrotation
                JOINT rMid2
                {
                  OFFSET -3.10165 -0.590103 1.0647
                  CHANNELS 3 Zrotation Xrotation Yrotation
                  End Site
                  {
                    OFFSET -2.48547 -0.328903 0.83742
                  }
                }
              }
              JOINT rRing1
              {
                OFFSET -8.82822 0.546677 1.51678
                CHANNELS 3 Zrotation Xrotation Yrotation
                JOINT rRing2
                {
                  OFFSET -2.60934 -0.819778 -0.0198488
                  CHANNELS 3 Zrotation Xrotation Yrotation
                  End Site
                  {
                    OFFSET -2.33842 -0.294052 0.168128
                  }
                }
              }
              JOINT rPinky1
              {
                OFFSET -8.27202 -0.0477905 -0.4584
                CHANNELS 3 Zrotation Xrotation Yrotation
                JOINT rPinky2
                {
                  OFFSET -1.82734 -0.647385 -0.700984
                  CHANNELS 3 Zrotation Xrotation Yrotation
                  End Site
                  {
                    OFFSET -1.69225 -0.51767 -0.607171
                  }
                }
              }
            }
          }
        }
      }
      JOINT lCollar
      {
        OFFSET 2.68224 19.2634 -4.8768
        CHANNELS 3 Zrotation Xrotation Yrotation
        JOINT lShldr
        {
          OFFSET 8.77824 -1.95073 1.46304
          CHANNELS 3 Zrotation Xrotation Yrotation
          JOINT lForeArm
          {
            OFFSET 28.1742 -1.7115 0.48768
            CHANNELS 3 Zrotation Xrotation Yrotation
            JOINT lHand
            {
              OFFSET 22.5879 0.773209 7.07136
              CHANNELS 3 Zrotation Xrotation Yrotation
              JOINT lThumb1
              {
                OFFSET 1.2192 -0.487915 3.41376
                CHANNELS 3 Zrotation Xrotation Yrotation
                JOINT lThumb2
                {
                  OFFSET 3.37035 -0.52449 3.41376
                  CHANNELS 3 Zrotation Xrotation Yrotation
                  End Site
                  {
                    OFFSET 1.78271 -1.18214 1.43049
                  }
                }
              }
              JOINT lIndex1
              {
                OFFSET 7.75947 0.938293 5.60832
                CHANNELS 3 Zrotation Xrotation Yrotation
                JOINT lIndex2
                {
                  OFFSET 2.54057 -0.884171 1.56538
                  CHANNELS 3 Zrotation Xrotation Yrotation
                  End Site
                  {
                    OFFSET 1.62519 -0.234802 1.16502
                  }
                }
              }
              JOINT lMid1
              {
                OFFSET 8.24714 1.18213 3.41376
                CHANNELS 3 Zrotation Xrotation Yrotation
                JOINT lMid2
                {
                  OFFSET 3.10165 -0.590103 1.0647
                  CHANNELS 3 Zrotation Xrotation Yrotation
                  End Site
                  {
                    OFFSET 2.48547 -0.328903 0.83742
                  }
                }
              }
              JOINT lRing1
              {
                OFFSET 8.82822 0.546677 1.51678
                CHANNELS 3 Zrotation Xrotation Yrotation
                JOINT lRing2
                {
                  OFFSET 2.60934 -0.819778 -0.0198488
                  CHANNELS 3 Zrotation Xrotation Yrotation
                  End Site
                  {
                    OFFSET 2.33842 -0.294052 0.168128
                  }
                }
              }
              JOINT lPinky1
              {
                OFFSET 8.27202 -0.0477905 -0.4584
                CHANNELS 3 Zrotation Xrotation Yrotation
                JOINT lPinky2
                {
                  OFFSET 1.82734 -0.647385 -0.700984
                  CHANNELS 3 Zrotation Xrotation Yrotation
                  End Site
                  {
                    OFFSET 1.69225 -0.51767 -0.607171
                  }
                }
              }
            }
          }
        }
      }
    }
  }
  JOINT rButtock
  {
    OFFSET -8.77824 4.35084 1.2192
    CHANNELS 3 Zrotation Xrotation Yrotation
    JOINT rThigh
    {
      OFFSET 0 -1.70687 -2.19456
      CHANNELS 3 Zrotation Xrotation Yrotation
      JOINT rShin
      {
        OFFSET 0 -36.8199 0.73152
        CHANNELS 3 Zrotation Xrotation Yrotation
        JOINT rFoot
        {
          OFFSET 0.73152 -45.1104 -5.12064
          CHANNELS 3 Zrotation Xrotation Yrotation
          End Site
          {
            OFFSET -1.1221 -3.69964 12.103
          }
        }
      }
    }
  }
  JOINT lButtock
  {
    OFFSET 8.77824 4.35084 1.2192
    CHANNELS 3 Zrotation Xrotation Yrotation
    JOINT lThigh
    {
      OFFSET 0 -1.70687 -2.19456
      CHANNELS 3 Zrotation Xrotation Yrotation
      JOINT lShin
      {
        OFFSET 0 -36.8199 0.73152
        CHANNELS 3 Zrotation Xrotation Yrotation
        JOINT lFoot
        {
          OFFSET -0.73152 -45.1104 -5.12064
          CHANNELS 3 Zrotation Xrotation Yrotation
          End Site
          {
            OFFSET 1.1221 -3.69964 12.103
          }
        }
      }
    }
  }
}
MOTION
Frames:	8
Frame Time:	0.00833333
2.30639 82.8876 54.5303 -9.7948 -12.0645 14.2646 0.590488 -4.84649 -6.99105 -0.179537 -15.4472 -2.24678 1.74509 -2.71743 -1.28368 3.1065 2.69189 -3.29885 -0.0 0.0 0.0 -0.0 0.0 0.0 1.11051e-13 2.62643e-13 -2.38181e-13 34.9761 16.6082 -4.67698 -28.425 -34.7343 74.6958 -0.946085 -26.4869 -4.01605 1.19288e-09 5.76996e-09 3.10391e-09 1.99882e-09 1.00408e-08 5.38073e-09 1.19288e-09 5.76995e-09 3.10391e-09 7.73091 5.47488 0.417314 1.19287e-09 5.76996e-09 3.10391e-09 2.90554 0.965183 0.102902 1.19288e-09 5.76995e-09 3.10391e-09 10.2786 0.731801 0.0259123 1.19287e-09 5.76995e-09 3.10392e-09 2.22167 -0.733487 -0.20892 1.10946e-13 2.62645e-13 -2.3842e-13 13.2295 61.6635 -96.8022 24.5783 -48.6054 -101.395 4.26337 -49.0558 9.32405 -1.44769e-09 -3.29012e-11 -1.45616e-09 -2.43268e-09 -8.2378e-11 -2.5747e-09 -1.44769e-09 -3.29011e-11 -1.45615e-09 -7.73091 5.47488 -0.417314 -1.44769e-09 -3.29023e-11 -1.45616e-09 -2.90554 0.965183 -0.102902 -1.4477e-09 -3.29017e-11 -1.45616e-09 -10.2786 0.731801 -0.0259123 -1.44768e-09 -3.28985e-11 -1.45617e-09 -2.22167 -0.733487 0.20892 -2.03217e-16 0.0 -3.88251e-19 4.29185 -10.5553 25.0861 0.0332874 -1.29049 0.327435 -3.60311 -4.12708 -19.3882 2.03217e-16 0.0 3.88251e-19 0.422601 -9.06308 -37.0118 0.0156533 12.908 -0.00917675 18.6921 -16.8846 56.1089
2.28064 82.8904 54.598 -9.7339 -12.0741 14.2091 0.725846 -5.2066 -6.63081 -0.263753 -15.1092 -2.15895 1.54587 -2.62672 -1.31883 2.7814 2.75316 -3.29301 -0.0 0.0 0.0 -0.0 0.0 0.0 3.05252e-13 7.20003e-13 -3.18667e-13 36.8298 16.9025 -6.08057 -28.3831 -36.5816 78.0149 -0.953494 -26.5819 -4.03275 1.26971e-09 1.01679e-08 5.19981e-09 2.09063e-09 1.76649e-08 8.99841e-09 1.26971e-09 1.01679e-08 5.1998e-09 7.73091 5.47488 0.417314 1.2697e-09 1.01679e-08 5.19981e-09 2.90554 0.965183 0.102902 1.26971e-09 1.01679e-08 5.19981e-09 10.2786 0.731801 0.0259123 1.2697e-09 1.01679e-08 5.19981e-09 2.22167 -0.733487 -0.20892 3.05113e-13 7.20005e-13 -3.18887e-13 4.54434 64.0462 -87.3966 24.298 -48.988 -102.322 4.29226 -49.1756 9.36292 -1.4456e-09 -2.22295e-10 -1.93492e-09 -2.40807e-09 -4.36715e-10 -3.40422e-09 -1.4456e-09 -2.22295e-10 -1.93491e-09 -7.73091 5.47488 -0.417314 -1.4456e-09 -2.22296e-10 -1.93492e-09 -2.90554 0.965183 -0.102902 -1.4456e-09 -2.22296e-10 -1.93492e-09 -10.2786 0.731801 -0.0259123 -1.44559e-09 -2.22292e-10 -1.93492e-09 -2.22167 -0.733487 0.20892 -2.03217e-16 0.0 -3.88251e-19 4.25545 -10.4842 25.2335 0.0331467 -1.30333 0.331684 -3.63582 -4.18696 -19.4735 2.03217e-16 0.0 3.88251e-19 0.311262 -8.96167 -37.1856 0.0156662 12.9242 0.00652521 19.0615 -17.0938 56.3477
2.23716 82.8859 54.68 -9.6774 -12.014 14.1107 0.882567 -5.53235 -6.31068 -0.355548 -14.7944 -2.08375 1.40614 -2.51734 -1.31487 2.41588 2.89936 -3.22851 -0.0 0.0 0.0 -0.0 0.0 0.0 4.06749e-13 9.486e-13 -3.59254e-13 38.8487 17.4491 -7.36682 -28.2746 -38.582 81.4165 -0.971491 -26.8158 -4.07378 1.34216e-09 1.24456e-08 6.21313e-09 2.19606e-09 2.16163e-08 1.07487e-08 1.34216e-09 1.24456e-08 6.21313e-09 7.73091 5.47488 0.417314 1.34216e-09 1.24456e-08 6.21314e-09 2.90554 0.965183 0.102902 1.34217e-09 1.24456e-08 6.21313e-09 10.2786 0.731801 0.0259123 1.34215e-09 1.24456e-08 6.21314e-09 2.22167 -0.733487 -0.20892 4.06605e-13 9.486e-13 -3.59452e-13 -5.08419 65.7724 -76.8549 23.9569 -49.4521 -103.421 4.31397 -49.2642 9.39195 -1.42202e-09 -2.87727e-10 -2.06853e-09 -2.36115e-09 -5.67688e-10 -3.63612e-09 -1.42202e-09 -2.87728e-10 -2.06853e-09 -7.73091 5.47488 -0.417314 -1.42202e-09 -2.87729e-10 -2.06853e-09 -2.90554 0.965183 -0.102902 -1.42202e-09 -2.87728e-10 -2.06853e-09 -10.2786 0.731801 -0.0259123 -1.42201e-09 -2.87725e-10 -2.06853e-09 -2.22167 -0.733487 0.20892 -2.03217e-16 0.0 -3.88251e-19 4.21308 -10.3804 25.3333 0.032919 -1.31796 0.335165 -3.66783 -4.24547 -19.5606 2.03217e-16 0.0 3.88251e-19 0.208993 -8.84288 -37.3308 0.0156327 12.9375 0.0179096 19.3144 -17.2303 56.5221
2.1836 82.8632 54.767 -9.6166 -11.9168 13.9929 1.05381 -5.8106 -6.05497 -0.44918 -14.4995 -2.02706 1.34025 -2.37355 -1.25775 1.96629 3.09786 -3.08116 -0.0 0.0 0.0 -0.0 0.0 0.0 3.63668e-13 8.2727e-13 -3.46503e-13 41.0594 18.2327 -8.56578 -28.0414 -40.9381 85.1226 -1.01206 -27.3307 -4.16477 1.47447e-09 1.16561e-08 5.60624e-09 2.43665e-09 2.0257e-08 9.70604e-09 1.47447e-09 1.16561e-08 5.60624e-09 7.73091 5.47488 0.417314 1.47446e-09 1.16561e-08 5.60624e-09 2.90554 0.965183 0.102902 1.47447e-09 1.16561e-08 5.60624e-09 10.2786 0.731801 0.0259123 1.47446e-09 1.16561e-08 5.60625e-09 2.22167 -0.733487 -0.20892 3.63573e-13 8.27265e-13 -3.46675e-13 -15.1809 66.8613 -65.5972 23.5338 -49.9874 -104.729 4.35609 -49.4255 9.44688 -1.40839e-09 -1.13075e-10 -1.62739e-09 -2.35573e-09 -2.73339e-10 -2.87509e-09 -1.4084e-09 -1.13076e-10 -1.62739e-09 -7.73091 5.47488 -0.417314 -1.40839e-09 -1.13077e-10 -1.62739e-09 -2.90554 0.965183 -0.102902 -1.4084e-09 -1.13076e-10 -1.62739e-09 -10.2786 0.731801 -0.0259123 -1.40839e-09 -1.13073e-10 -1.62739e-09 -2.22167 -0.733487 0.20892 -2.03217e-16 0.0 -3.88251e-19 4.1527 -10.2232 25.3759 0.0324383 -1.33887 0.337187 -3.70341 -4.30466 -19.6769 2.03217e-16 0.0 3.88251e-19 0.112991 -8.70155 -37.4273 0.0154083 12.9453 0.021665 19.3599 -17.2463 56.5757
2.14327 82.8312 54.8635 -9.4983 -11.7846 13.854 1.2373 -6.07525 -5.85186 -0.535977 -14.1932 -1.98438 1.31767 -2.20961 -1.164 1.43554 3.32926 -2.87349 -0.0 0.0 0.0 -0.0 0.0 0.0 2.37085e-13 4.94483e-13 -2.949e-13 43.4745 19.187 -9.74643 -27.4413 -43.483 89.5825 -1.0699 -28.0299 -4.29016 1.62589e-09 8.92047e-09 3.9478e-09 2.73077e-09 1.55279e-08 6.85043e-09 1.62589e-09 8.92046e-09 3.9478e-09 7.73091 5.47488 0.417314 1.62589e-09 8.92046e-09 3.9478e-09 2.90554 0.965183 0.102902 1.62589e-09 8.92046e-09 3.9478e-09 10.2786 0.731801 0.0259123 1.62588e-09 8.92046e-09 3.94781e-09 2.22167 -0.733487 -0.20892 2.37075e-13 4.94471e-13 -2.95037e-13 -25.6474 67.192 -53.7657 23.0097 -50.5793 -106.278 4.4274 -49.6943 9.53946 -1.3343e-09 2.11041e-10 -7.94869e-10 -2.26266e-09 2.84581e-10 -1.4354e-09 -1.33431e-09 2.11039e-10 -7.94871e-10 -7.73091 5.47488 -0.417314 -1.3343e-09 2.1104e-10 -7.94867e-10 -2.90554 0.965183 -0.102902 -1.33431e-09 2.1104e-10 -7.94868e-10 -10.2786 0.731801 -0.0259123 -1.3343e-09 2.11042e-10 -7.94871e-10 -2.22167 -0.733487 0.20892 -2.03217e-16 0.0 -3.88251e-19 4.0783 -10.0294 25.3948 0.0317919 -1.36494 0.33832 -3.74986 -4.3717 -19.8459 2.03217e-16 0.0 3.88251e-19 0.0133909 -8.54624 -37.5315 0.0150618 12.947 0.0213628 19.2819 -17.1869 56.568
2.09524 82.7999 54.9485 -9.383 -11.6223 13.7252 1.44581 -6.33011 -5.65559 -0.634299 -13.9067 -1.94556 1.328 -2.05018 -1.05288 0.915708 3.68166 -2.64295 -0.0 0.0 0.0 -0.0 0.0 0.0 9.7908e-14 1.19007e-13 -2.23815e-13 46.0762 20.395 -10.8123 -26.4132 -45.8471 94.5657 -1.12554 -28.6657 -4.4062 1.68246e-09 5.52884e-09 2.02103e-09 2.86617e-09 9.65873e-09 3.52945e-09 1.68246e-09 5.52883e-09 2.02102e-09 7.73091 5.47488 0.417314 1.68246e-09 5.52884e-09 2.02103e-09 2.90554 0.965183 0.102902 1.68246e-09 5.52884e-09 2.02103e-09 10.2786 0.731801 0.0259123 1.68245e-09 5.52884e-09 2.02104e-09 2.22167 -0.733487 -0.20892 9.79783e-14 1.18989e-13 -2.23923e-13 -35.8412 66.7409 -42.1111 22.3903 -51.225 -108.032 4.45837 -49.811 9.57974 -1.18181e-09 4.9131e-10 4.99513e-11 -2.03518e-09 7.7298e-10 2.92266e-11 -1.18182e-09 4.91308e-10 4.99483e-11 -7.73091 5.47488 -0.417314 -1.18181e-09 4.91309e-10 4.99536e-11 -2.90554 0.965183 -0.102902 -1.18182e-09 4.9131e-10 4.99515e-11 -10.2786 0.731801 -0.0259123 -1.18181e-09 4.9131e-10 4.99466e-11 -2.22167 -0.733487 0.20892 -2.03217e-16 0.0 -3.88251e-19 4.01457 -9.83277 25.3869 0.0312866 -1.38692 0.339693 -3.79225 -4.43656 -19.9879 2.03217e-16 0.0 3.88251e-19 -0.0760758 -8.38232 -37.6463 0.0148818 12.9492 0.0217715 19.2185 -17.1303 56.5784
2.03091 82.7714 55.0103 -9.332 -11.481 13.6439 1.69298 -6.57899 -5.42036 -0.76263 -13.671 -1.90044 1.36118 -1.91994 -0.94363 0.498127 4.24321 -2.42706 -0.0 0.0 0.0 -0.0 0.0 0.0 1.70427e-14 -1.30393e-13 -1.52617e-13 48.8419 21.943 -11.668 -25.1215 -47.8028 99.5116 -1.15525 -28.9909 -4.46637 1.53022e-09 2.77125e-09 6.0913e-10 2.63056e-09 4.87941e-09 1.09066e-09 1.53023e-09 2.77124e-09 6.09124e-10 7.73091 5.47488 0.417314 1.53022e-09 2.77125e-09 6.0913e-10 2.90554 0.965183 0.102902 1.53023e-09 2.77125e-09 6.09137e-10 10.2786 0.731801 0.0259123 1.53022e-09 2.77125e-09 6.09146e-10 2.22167 -0.733487 -0.20892 1.71495e-14 -1.30411e-13 -1.52716e-13 -45.1701 65.5812 -31.3403 21.6819 -51.9249 -109.956 4.3783 -49.5162 9.4767 -9.32987e-10 5.34421e-10 5.27991e-10 -1.62653e-09 8.58763e-10 8.65049e-10 -9.32996e-10 5.34419e-10 5.27988e-10 -7.73091 5.47488 -0.417314 -9.32985e-10 5.34421e-10 5.27994e-10 -2.90554 0.965183 -0.102902 -9.32995e-10 5.34421e-10 5.27991e-10 -10.2786 0.731801 -0.0259123 -9.32985e-10 5.34421e-10 5.27985e-10 -2.22167 -0.733487 0.20892 -2.03217e-16 0.0 -3.88251e-19 3.98623 -9.66682 25.3489 0.0312299 -1.39556 0.342434 -3.81519 -4.48942 -20.0236 2.03217e-16 0.0 3.88251e-19 -0.14168 -8.21514 -37.7748 0.015155 12.9582 0.0276601 19.3076 -17.1547 56.6859
1.9605 82.7445 55.0785 -9.3225 -11.4038 13.5558 2.02009 -6.80135 -5.15426 -0.935278 -13.5128 -1.85397 1.43295 -1.83179 -0.821257 0.194205 5.05062 -2.2003 -0.0 0.0 0.0 -0.0 0.0 0.0 1.96115e-14 -2.085e-13 -7.77477e-14 51.8294 23.9833 -12.2957 -23.7507 -49.5875 104.09 -1.14006 -28.8221 -4.43522 9.98005e-10 7.40419e-10 -7.4758e-11 1.72369e-09 1.34276e-09 -1.02693e-10 9.98005e-10 7.40408e-10 -7.4766e-11 7.73091 5.47488 0.417314 9.98004e-10 7.40418e-10 -7.47602e-11 2.90554 0.965183 0.102902 9.9801e-10 7.40419e-10 -7.4753e-11 10.2786 0.731801 0.0259123 9.98e-10 7.4042e-10 -7.47442e-11 2.22167 -0.733487 -0.20892 1.96879e-14 -2.08512e-13 -7.78692e-14 -53.49 63.9304 -21.6204 20.8241 -52.7163 -112.177 4.11695 -48.5031 9.13512 -5.02114e-10 2.26858e-10 4.68121e-10 -8.81683e-10 3.5227e-10 7.80405e-10 -5.02122e-10 2.26857e-10 4.68118e-10 -7.73091 5.47488 -0.417314 -5.02112e-10 2.26859e-10 4.68125e-10 -2.90554 0.965183 -0.102902 -5.02122e-10 2.2686e-10 4.68121e-10 -10.2786 0.731801 -0.0259123 -5.02113e-10 2.2686e-10 4.68114e-10 -2.22167 -0.733487 0.20892 -2.03217e-16 0.0 -3.88251e-19 4.02056 -9.53372 25.2682 0.0317253 -1.38601 0.346825 -3.81396 -4.5304 -19.9204 2.03217e-16 0.0 3.88251e-19 -0.15752 -8.03915 -37.9225 0.0159359 12.9734 0.0408988 19.6025 -17.2878 56.9194
